#Comment line ignore any data following # character 
#Hierarchical Translation and Rotation (.htr) file 
[Header]	
#Header keywords are followed by a single value 
FileType HTR		#Single word string
DataType HTRS		#Translation followed by rotation and scale data
FileVersion 1		#integer
NumSegments 64		#integer
NumFrames 3		#integer
DataFrameRate 30		#integer, data frame rate in this file
EulerRotationOrder ZYX
CalibrationUnits mm
RotationUnits Degrees
GlobalAxisofGravity Y
BoneLengthAxis Y
ScaleFactor 1.00
[SegmentNames&Hierarchy]
#CHILD	PARENT
Pinger_Root GLOBAL
Pelvis Pinger_Root
L_Hip Pelvis
R_Hip Pelvis
Rear_Leg01 Pelvis
Spine1 Pelvis
L_Leg01 L_Hip
L_Leg02 L_Leg01
L_Leg03 L_Leg02
L_Foot L_Leg03
L_Toe1_01 L_Foot
L_Toe2_01 L_Foot
L_Toe3_01 L_Foot
planeAlignerLeft L_Foot
L_Toe1_02 L_Toe1_01
L_Toe1_03 L_Toe1_02
L_Toe2_02 L_Toe2_01
L_Toe2_03 L_Toe2_02
L_Toe3_02 L_Toe3_01
L_Toe3_03 L_Toe3_02
planeLockWeightLeft planeAlignerLeft
R_Leg01 R_Hip
R_Leg02 R_Leg01
R_Leg03 R_Leg02
R_Foot R_Leg03
planeAlignerRight R_Foot
R_Toe1_01 R_Foot
R_Toe2_01 R_Foot
R_Toe3_01 R_Foot
planeLockWeightRight planeAlignerRight
R_Toe1_02 R_Toe1_01
R_Toe1_03 R_Toe1_02
R_Toe2_02 R_Toe2_01
R_Toe2_03 R_Toe2_02
R_Toe3_02 R_Toe3_01
R_Toe3_03 R_Toe3_02
Rear_Leg02 Rear_Leg01
Rear_Leg03 Rear_Leg02
Rear_Leg04 Rear_Leg03
Rear_Foot Rear_Leg04
planeAlignerCenter Rear_Foot
Rear_Toe1_01 Rear_Foot
Rear_Toe2_01 Rear_Foot
Rear_Toe3_01 Rear_Foot
planeLockWeightCenter planeAlignerCenter
Rear_Toe1_02 Rear_Toe1_01
Rear_Toe1_03 Rear_Toe1_02
Rear_Toe2_02 Rear_Toe2_01
Rear_Toe2_03 Rear_Toe2_02
Rear_Toe3_02 Rear_Toe3_01
Rear_Toe3_03 Rear_Toe3_02
Back_Bone Spine1
Head Spine1
Motor_Bone Back_Bone
Ping_Mechanism Back_Bone
BN_LookIK Head
bottomMouth Head
L_Mouth01 Head
L_mouthFront Head
mouthGun Head
R_Mouth01 Head
R_mouthFront Head
TopMouth Head
weapon_bone Head
[BasePosition]
#SegmentName Tx, Ty, Tz, Rx, Ry, Rz, BoneLength
Pinger_Root 0.000000 0.000000 0.000000 -90.000000 0.000000 0.000000 10.000000 
Pelvis 0.000000 0.000000 0.000000 0.000000 0.000000 0.000000 10.000000 
L_Hip 0.000000 0.000000 0.000000 0.000000 0.000000 0.000000 10.000000 
R_Hip 0.000000 0.000000 0.000000 0.000000 0.000000 0.000000 10.000000 
Rear_Leg01 0.000000 0.000000 0.000000 0.000000 0.000000 0.000000 10.000000 
Spine1 0.000000 0.000000 0.000000 0.000000 0.000000 0.000000 10.000000 
L_Leg01 0.000000 0.000000 0.000000 0.000000 0.000000 0.000000 10.000000 
L_Leg02 0.000000 0.000000 0.000000 0.000000 0.000000 0.000000 10.000000 
L_Leg03 0.000000 0.000000 0.000000 0.000000 0.000000 0.000000 10.000000 
L_Foot 0.000000 0.000000 0.000000 0.000000 0.000000 0.000000 10.000000 
L_Toe1_01 0.000000 0.000000 0.000000 0.000000 0.000000 0.000000 10.000000 
L_Toe2_01 0.000000 0.000000 0.000000 0.000000 0.000000 0.000000 10.000000 
L_Toe3_01 0.000000 0.000000 0.000000 0.000000 0.000000 0.000000 10.000000 
planeAlignerLeft 0.000000 0.000000 0.000000 0.000000 0.000000 0.000000 10.000000 
L_Toe1_02 0.000000 0.000000 0.000000 0.000000 0.000000 0.000000 10.000000 
L_Toe1_03 0.000000 0.000000 0.000000 0.000000 0.000000 0.000000 10.000000 
L_Toe2_02 0.000000 0.000000 0.000000 0.000000 0.000000 0.000000 10.000000 
L_Toe2_03 0.000000 0.000000 0.000000 0.000000 0.000000 0.000000 10.000000 
L_Toe3_02 0.000000 0.000000 0.000000 0.000000 0.000000 0.000000 10.000000 
L_Toe3_03 0.000000 0.000000 0.000000 0.000000 0.000000 0.000000 10.000000 
planeLockWeightLeft 0.000000 0.000000 0.000000 0.000000 0.000000 0.000000 10.000000 
R_Leg01 0.000000 0.000000 0.000000 0.000000 0.000000 0.000000 10.000000 
R_Leg02 0.000000 0.000000 0.000000 0.000000 0.000000 0.000000 10.000000 
R_Leg03 0.000000 0.000000 0.000000 0.000000 0.000000 0.000000 10.000000 
R_Foot 0.000000 0.000000 0.000000 0.000000 0.000000 0.000000 10.000000 
planeAlignerRight 0.000000 0.000000 0.000000 0.000000 0.000000 0.000000 10.000000 
R_Toe1_01 0.000000 0.000000 0.000000 0.000000 0.000000 0.000000 10.000000 
R_Toe2_01 0.000000 0.000000 0.000000 0.000000 0.000000 0.000000 10.000000 
R_Toe3_01 0.000000 0.000000 0.000000 0.000000 0.000000 0.000000 10.000000 
planeLockWeightRight 0.000000 0.000000 0.000000 0.000000 0.000000 0.000000 10.000000 
R_Toe1_02 0.000000 0.000000 0.000000 0.000000 0.000000 0.000000 10.000000 
R_Toe1_03 0.000000 0.000000 0.000000 0.000000 0.000000 0.000000 10.000000 
R_Toe2_02 0.000000 0.000000 0.000000 0.000000 0.000000 0.000000 10.000000 
R_Toe2_03 0.000000 0.000000 0.000000 0.000000 0.000000 0.000000 10.000000 
R_Toe3_02 0.000000 0.000000 0.000000 0.000000 0.000000 0.000000 10.000000 
R_Toe3_03 0.000000 0.000000 0.000000 0.000000 0.000000 0.000000 10.000000 
Rear_Leg02 0.000000 0.000000 0.000000 0.000000 0.000000 0.000000 10.000000 
Rear_Leg03 0.000000 0.000000 0.000000 0.000000 0.000000 0.000000 10.000000 
Rear_Leg04 0.000000 0.000000 0.000000 0.000000 0.000000 0.000000 10.000000 
Rear_Foot 0.000000 0.000000 0.000000 0.000000 0.000000 0.000000 10.000000 
planeAlignerCenter 0.000000 0.000000 0.000000 0.000000 0.000000 0.000000 10.000000 
Rear_Toe1_01 0.000000 0.000000 0.000000 0.000000 0.000000 0.000000 10.000000 
Rear_Toe2_01 0.000000 0.000000 0.000000 0.000000 0.000000 0.000000 10.000000 
Rear_Toe3_01 0.000000 0.000000 0.000000 0.000000 0.000000 0.000000 10.000000 
planeLockWeightCenter 0.000000 0.000000 0.000000 0.000000 0.000000 0.000000 10.000000 
Rear_Toe1_02 0.000000 0.000000 0.000000 0.000000 0.000000 0.000000 10.000000 
Rear_Toe1_03 0.000000 0.000000 0.000000 0.000000 0.000000 0.000000 10.000000 
Rear_Toe2_02 0.000000 0.000000 0.000000 0.000000 0.000000 0.000000 10.000000 
Rear_Toe2_03 0.000000 0.000000 0.000000 0.000000 0.000000 0.000000 10.000000 
Rear_Toe3_02 0.000000 0.000000 0.000000 0.000000 0.000000 0.000000 10.000000 
Rear_Toe3_03 0.000000 0.000000 0.000000 0.000000 0.000000 0.000000 10.000000 
Back_Bone 0.000000 0.000000 0.000000 0.000000 0.000000 0.000000 10.000000 
Head 0.000000 0.000000 0.000000 0.000000 0.000000 0.000000 10.000000 
Motor_Bone 0.000000 0.000000 0.000000 0.000000 0.000000 0.000000 10.000000 
Ping_Mechanism 0.000000 0.000000 0.000000 0.000000 0.000000 0.000000 10.000000 
BN_LookIK 0.000000 0.000000 0.000000 0.000000 0.000000 0.000000 10.000000 
bottomMouth 0.000000 0.000000 0.000000 0.000000 0.000000 0.000000 10.000000 
L_Mouth01 0.000000 0.000000 0.000000 0.000000 0.000000 0.000000 10.000000 
L_mouthFront 0.000000 0.000000 0.000000 0.000000 0.000000 0.000000 10.000000 
mouthGun 0.000000 0.000000 0.000000 0.000000 0.000000 0.000000 10.000000 
R_Mouth01 0.000000 0.000000 0.000000 0.000000 0.000000 0.000000 10.000000 
R_mouthFront 0.000000 0.000000 0.000000 0.000000 0.000000 0.000000 10.000000 
TopMouth 0.000000 0.000000 0.000000 0.000000 0.000000 0.000000 10.000000 
weapon_bone 0.000000 0.000000 0.000000 0.000000 0.000000 0.000000 10.000000 
#Beginning of Data. Separated by tabs
#Fr	Tx	Ty	Tz	Rx	Ry	Rz	SF
[Pinger_Root]
21 1778.425781 0.000157 0.000000 -0.000075 -0.000000 -0.000020 1778.425903
22 1860.000244 0.000164 0.000000 -0.000075 -0.000000 -0.000020 1860.000244
23 1938.309204 0.000171 0.000000 -0.000075 -0.000000 -0.000020 1938.309204
[Pelvis]
21 354.480011 1174.690796 4716.538574 34.029064 -71.383820 -61.416569 4873.529297
22 342.650635 1189.020996 4744.816406 34.500408 -71.096069 -59.502213 4903.515137
23 322.378265 1200.418457 4757.099609 34.993576 -70.813789 -57.609783 4916.800781
[L_Hip]
21 5.766392 125.831482 872.656799 -178.253311 -81.787758 87.381340 881.701050
22 5.766392 125.831482 872.656799 -178.253311 -81.787758 87.381340 881.701050
23 5.766392 125.831482 872.656799 -178.253311 -81.787758 87.381340 881.701050
[R_Hip]
21 5.765438 125.836372 -872.654907 -1.746690 81.787712 87.381248 881.699829
22 5.765438 125.836372 -872.654907 -1.746690 81.787712 87.381248 881.699829
23 5.765438 125.836372 -872.654907 -1.746690 81.787712 87.381248 881.699829
[Rear_Leg01]
21 -192.298416 -925.602966 -0.001907 150.952652 11.103662 -152.502991 945.367432
22 -192.298416 -925.602966 -0.001907 154.181335 10.340257 -149.455368 945.367432
23 -192.298416 -925.602966 -0.001907 157.080490 8.605035 -148.258347 945.367432
[Spine1]
21 290.604584 5.007505 0.000477 10.752967 -10.469964 38.267387 290.647736
22 290.604584 5.007505 0.000477 8.609507 -9.657779 38.408978 290.647736
23 290.604584 5.007505 0.000477 6.689835 -8.881844 38.650928 290.647736
[L_Leg01]
21 761.932007 -0.002384 -0.069261 82.656609 -23.600065 -96.037186 761.932068
22 761.932007 -0.002384 -0.069261 84.381569 -22.507116 -96.731239 761.932068
23 761.932007 -0.002384 -0.069261 86.227440 -22.111227 -97.342995 761.932068
[L_Leg02]
21 1441.140503 -0.000954 -0.000715 -1.228601 0.500699 -110.311684 1441.140503
22 1441.140503 -0.000954 -0.000715 -1.316023 0.524436 -108.117737 1441.140503
23 1441.140503 -0.000954 -0.000715 -1.345244 0.532560 -106.958748 1441.140503
[L_Leg03]
21 1686.963989 -0.000715 -0.000954 0.036575 -0.010195 99.909874 1686.963989
22 1686.963989 -0.000715 -0.000954 0.036570 -0.010213 99.964790 1686.963989
23 1686.963989 -0.000715 -0.000954 0.036565 -0.010230 100.019707 1686.963989
[L_Foot]
21 3041.570068 -30.715107 11.297464 -8.678267 9.141575 65.304932 3041.746094
22 3041.570068 -30.715107 11.297464 -9.215958 8.338431 64.431206 3041.746094
23 3041.570068 -30.715107 11.297464 -9.740173 7.527318 63.566795 3041.746094
[L_Toe1_01]
21 -188.216690 -224.732346 -21.137953 88.901688 -1.635284 -149.311096 293.899567
22 -188.216690 -224.732346 -21.137953 88.863327 -1.610521 -148.125000 293.899567
23 -188.216690 -224.732346 -21.137953 88.825455 -1.584970 -146.938934 293.899567
[L_Toe2_01]
21 200.746536 -219.926590 148.838394 -75.237900 -11.137093 -56.478039 332.896027
22 200.746536 -219.926590 148.838394 -75.068100 -10.907091 -57.435539 332.896027
23 200.746536 -219.926590 148.838394 -74.902351 -10.674336 -58.391590 332.896027
[L_Toe3_01]
21 188.832520 -219.859131 -191.078659 -109.087547 13.708112 -58.420357 347.140900
22 188.832520 -219.859131 -191.078659 -109.277527 13.439328 -59.277313 347.140900
23 188.832520 -219.859131 -191.078659 -109.463165 13.167787 -60.132431 347.140900
[planeAlignerLeft]
21 -75.283813 -769.316040 0.001221 0.000000 -89.951546 -90.054779 772.990784
22 -76.660843 -782.142029 -0.001221 0.000000 -89.937447 -90.057434 785.889954
23 -78.037872 -794.968018 -0.003662 0.000000 -89.944046 -90.060097 798.789124
[L_Toe1_02]
21 413.761139 0.000477 0.000000 0.001384 -25.921574 0.001384 413.761139
22 413.761139 0.000477 0.000000 0.001385 -25.906355 0.001385 413.761139
23 413.761139 0.000477 0.000000 0.001385 -25.891130 0.001385 413.761139
[L_Toe1_03]
21 464.317322 0.000358 -0.000089 0.003785 53.859905 0.003785 464.317322
22 464.317322 0.000358 -0.000089 0.003546 51.347607 0.003546 464.317322
23 464.317322 0.000358 -0.000089 0.003366 49.189701 0.003366 464.317322
[L_Toe2_02]
21 342.235809 -0.000477 0.000238 0.001183 -75.945717 0.001183 342.235809
22 342.235809 -0.000477 0.000238 0.001183 -75.544609 0.001183 342.235809
23 342.235809 -0.000477 0.000238 0.001184 -75.143585 0.001184 342.235809
[L_Toe2_03]
21 420.210846 -0.000715 0.000000 -179.990646 84.064064 -179.987152 420.210846
22 420.210846 -0.000715 0.000000 -179.986557 85.665146 -179.983047 420.210846
23 420.210846 -0.000715 0.000000 -179.981018 86.822693 -179.977524 420.210846
[L_Toe3_02]
21 329.270111 0.000954 0.000000 0.001178 -79.683517 0.001178 329.270111
22 329.270111 0.000954 0.000000 0.001179 -79.312164 0.001179 329.270111
23 329.270111 0.000954 0.000000 0.001179 -78.940842 0.001179 329.270111
[L_Toe3_03]
21 439.137451 -0.001907 0.000954 -179.993744 81.771278 -179.990234 439.137451
22 439.137451 -0.001907 0.000954 -179.991959 83.267166 -179.988464 439.137451
23 439.137451 -0.001907 0.000954 -179.990097 84.348267 -179.986588 439.137451
[planeLockWeightLeft]
21 1000.000122 0.000082 -0.000233 -0.011826 -0.004376 0.005620 1000.000122
22 1000.000122 0.000094 -0.000242 -0.011826 -0.004376 0.005620 1000.000122
23 1000.000122 0.000106 -0.000251 -0.011826 -0.004376 0.005620 1000.000122
[R_Leg01]
21 761.455627 -0.001907 -0.000358 53.474339 -29.361948 91.549713 761.455688
22 761.455627 -0.001907 -0.000358 52.687668 -30.590458 87.121017 761.455688
23 761.455627 -0.001907 -0.000358 54.803242 -30.835739 80.866142 761.455688
[R_Leg02]
21 1441.140625 0.000000 -0.000238 -1.072651 -0.284126 -155.397415 1441.140625
22 1441.140625 0.000000 -0.000238 -0.937279 -0.216902 -148.710846 1441.140625
23 1441.140625 0.000000 -0.000238 -0.753179 -0.126335 -139.582397 1441.140625
[R_Leg03]
21 1686.963989 0.000954 0.001431 0.075931 -0.043287 130.957047 1686.963989
22 1686.963989 0.000954 0.001431 0.069931 -0.039889 129.392014 1686.963989
23 1686.963989 0.000954 0.001431 0.061872 -0.031851 127.138451 1686.963989
[R_Foot]
21 3041.560059 -30.531288 -11.204481 0.793761 -43.092518 73.101372 3041.734131
22 3041.560059 -30.531288 -11.204481 6.081505 -42.123737 66.483231 3041.734131
23 3041.560059 -30.531288 -11.204481 13.743113 -39.314003 56.809856 3041.734131
[planeAlignerRight]
21 -244.475784 -775.800232 36.229095 0.000000 -89.934387 -90.043106 814.215576
22 -243.129898 -781.196716 27.846426 0.000000 -89.925987 -90.044998 818.630432
23 -247.548370 -787.102600 15.357474 0.000000 -89.931473 -90.046921 825.255432
[R_Toe1_01]
21 -188.383347 -224.864899 21.052242 91.967041 -1.657491 -147.920349 294.101532
22 -188.383347 -224.864899 21.052242 92.073700 -2.166728 -149.548462 294.101532
23 -188.383347 -224.864899 21.052242 92.098572 -2.494374 -150.823883 294.101532
[R_Toe2_01]
21 200.637817 -220.002121 -148.787384 -107.094292 -2.390579 -79.737274 332.857574
22 200.637817 -220.002121 -148.787384 -107.087173 -3.355230 -78.428574 332.857574
23 200.637817 -220.002121 -148.787384 -107.028648 -3.715963 -76.796700 332.857574
[R_Toe3_01]
21 188.606735 -220.092957 191.126343 -64.736862 -21.277628 -92.371811 347.192566
22 188.606735 -220.092957 191.126343 -63.718117 -24.097933 -94.020836 347.192566
23 188.606735 -220.092957 191.126343 -62.348644 -26.743528 -95.499184 347.192566
[planeLockWeightRight]
21 0.000198 -0.000153 -0.000019 -0.011823 -0.004379 -0.000027 0.000251
22 104.000481 0.000153 -0.000038 -0.011823 -0.004379 -0.000027 104.000481
23 351.999817 0.000305 -0.000095 -0.011823 -0.004379 -0.000027 351.999817
[R_Toe1_02]
21 413.762085 0.000477 -0.000119 0.001430 -20.356695 0.001430 413.762085
22 413.762085 0.000477 -0.000119 0.001431 -20.146839 0.001431 413.762085
23 413.762085 0.000477 -0.000119 0.001428 -20.556488 0.001428 413.762085
[R_Toe1_03]
21 464.317810 0.000000 0.001088 0.000000 89.778831 0.003494 464.317810
22 464.317810 0.000000 0.001088 0.000000 89.972023 0.003497 464.317810
23 464.317810 0.000000 0.001088 -0.082289 89.181473 -0.078792 464.317810
[R_Toe2_02]
21 342.234741 -0.000954 0.000238 -0.008838 -80.928078 0.003221 342.234741
22 342.234741 -0.000954 0.000238 -0.006669 -80.928123 0.001370 342.234741
23 342.234741 -0.000954 0.000238 -0.004500 -80.928123 -0.000480 342.234741
[R_Toe2_03]
21 420.210846 0.000715 -0.000268 -179.996552 47.268528 179.999710 420.210846
22 420.210846 0.000715 -0.000268 -179.996567 46.457581 179.999664 420.210846
23 420.210846 0.000715 -0.000268 -179.996582 46.081112 179.999649 420.210846
[R_Toe3_02]
21 329.270355 -0.000477 -0.000954 0.001175 -84.362854 0.001175 329.270355
22 329.270355 -0.000477 -0.000954 0.001175 -84.219513 0.001175 329.270355
23 329.270355 -0.000477 -0.000954 0.001175 -84.076065 0.001175 329.270355
[R_Toe3_03]
21 439.137939 0.000238 0.001431 -179.996475 52.497265 -179.989075 439.137939
22 439.137939 0.000238 0.001431 -179.996155 54.002087 -179.988800 439.137939
23 439.137939 0.000238 0.001431 -179.995682 56.149471 -179.988373 439.137939
[Rear_Leg02]
21 1162.777710 -0.029802 0.005960 6.528614 -2.423785 -151.158386 1162.777710
22 1162.777710 -0.029802 0.005960 10.171812 -4.130596 -145.278091 1162.777710
23 1162.777710 -0.029802 0.005960 13.437932 -5.593146 -143.344986 1162.777710
[Rear_Leg03]
21 607.192505 -0.013351 -0.073195 0.009914 -0.006153 80.008949 607.192505
22 607.192505 -0.013351 -0.073195 0.009920 -0.006144 79.900520 607.192505
23 607.192505 -0.013351 -0.073195 0.009926 -0.006135 79.792091 607.192505
[Rear_Leg04]
21 995.874512 -0.020504 -0.011921 -0.044710 -0.012881 102.014580 995.874573
22 995.874512 -0.020504 -0.011921 -0.044577 -0.013326 100.869164 995.874573
23 995.874512 -0.020504 -0.011921 -0.044527 -0.013494 100.438660 995.874573
[Rear_Foot]
21 3096.176270 -0.067472 -0.041425 -150.322647 75.770416 9.869990 3096.176270
22 3096.176270 -0.067472 -0.041425 -140.604141 72.503166 17.054136 3096.176270
23 3096.176270 -0.067472 -0.041425 -134.556442 69.330971 21.686453 3096.176270
[planeAlignerCenter]
21 -14.531769 -34.665741 -760.728638 0.001964 -0.001286 156.418488 761.656738
22 -6.652665 -17.706753 -785.862915 0.001956 -0.001298 157.125381 786.090515
23 0.933990 0.148258 -807.319763 0.001948 -0.001310 157.832245 807.320313
[Rear_Toe1_01]
21 0.653352 83.966492 -371.173737 -0.827897 22.401731 64.290131 380.553192
22 0.653352 83.966492 -371.173737 -0.829911 24.601074 65.151215 380.553192
23 0.653352 83.966492 -371.173737 -0.794940 26.800184 66.028252 380.553192
[Rear_Toe2_01]
21 178.200760 -294.826019 -362.060547 -4.829197 47.499916 -105.656647 499.765686
22 178.200760 -294.826019 -362.060547 -4.991805 49.282650 -104.793968 499.765686
23 178.200760 -294.826019 -362.060547 -5.017162 50.756180 -103.449409 499.765686
[Rear_Toe3_01]
21 -153.359680 -308.780914 -362.060852 -4.876606 48.880890 -143.877151 499.952881
22 -153.359680 -308.780914 -362.060852 -5.459802 50.469105 -143.667953 499.952881
23 -153.359680 -308.780914 -362.060852 -6.054075 52.058605 -143.477676 499.952881
[planeLockWeightCenter]
21 1000.000488 0.000496 -0.000124 -0.011814 -0.004373 -0.000015 1000.000488
22 1000.000488 0.000496 -0.000121 -0.011814 -0.004373 -0.000015 1000.000488
23 1000.000488 0.000496 -0.000118 -0.011814 -0.004373 -0.000015 1000.000488
[Rear_Toe1_02]
21 379.707825 0.194073 0.000477 -0.005238 -32.917400 -0.000847 379.707855
22 379.707825 0.194073 0.000477 -0.004788 -33.240105 0.001097 379.707855
23 379.707825 0.194073 0.000477 -0.004350 -33.562786 0.003045 379.707855
[Rear_Toe1_03]
21 500.129700 0.165701 0.000119 -0.023758 87.417595 -0.027255 500.129761
22 500.129700 0.165701 0.000119 0.005378 82.362770 0.003624 500.129761
23 500.129700 0.165701 0.000119 0.010618 77.307899 0.010618 500.129761
[Rear_Toe2_02]
21 340.494507 0.000238 -0.000954 0.001200 -66.099831 0.001200 340.494507
22 340.494507 0.000238 -0.000954 0.001197 -67.367256 0.001197 340.494507
23 340.494507 0.000238 -0.000954 0.001194 -68.634499 0.001194 340.494507
[Rear_Toe2_03]
21 433.103577 0.000000 0.000238 0.005262 64.224419 0.005262 433.103546
22 433.103577 0.000000 0.000238 0.005627 65.923637 0.005627 433.103546
23 433.103577 0.000000 0.000238 0.006142 67.955780 0.006142 433.103546
[Rear_Toe3_02]
21 340.494141 -0.000358 -0.000477 0.001189 -71.717056 0.001189 340.494171
22 340.494141 -0.000358 -0.000477 0.001188 -72.514381 0.001188 340.494171
23 340.494141 -0.000358 -0.000477 0.001186 -73.311829 0.001186 340.494171
[Rear_Toe3_03]
21 433.103577 0.001431 -0.000238 0.007891 72.893967 0.007891 433.103546
22 433.103577 0.001431 -0.000238 0.008350 73.840767 0.008350 433.103546
23 433.103577 0.001431 -0.000238 0.009108 75.190399 0.009108 433.103546
[Back_Bone]
21 1312.175781 -701.934692 0.000954 2.387304 -3.615084 -85.725754 1488.125488
22 1312.175781 -701.934692 0.000954 2.323561 -3.578868 -84.821304 1488.125488
23 1312.175781 -701.934692 0.000954 2.260401 -3.541653 -83.916924 1488.125488
[Head]
21 1406.159424 809.709290 0.001431 5.799820 -12.184535 3.478790 1622.625488
22 1406.159424 809.709290 0.001431 5.719995 -12.701927 3.396065 1622.625488
23 1406.159424 809.709290 0.001431 5.618892 -13.006422 3.134023 1622.625488
[Motor_Bone]
21 1158.364380 -417.834747 0.000477 -3.495537 0.584004 -105.401466 1231.419434
22 1158.364380 -417.834747 0.000477 0.251859 -0.541810 -106.527908 1231.419434
23 1158.364380 -417.834747 0.000477 2.270587 -1.149517 -107.133400 1231.419434
[Ping_Mechanism]
21 1159.248657 -392.708435 62.477978 0.000103 -0.000053 82.120995 1225.553345
22 1160.319214 -392.211914 65.769577 0.000103 -0.000053 82.120995 1226.579224
23 1162.177856 -392.145538 67.189423 0.000103 -0.000053 82.120995 1228.393188
[BN_LookIK]
21 193.241119 1380.371704 -0.002861 0.000000 89.965736 -31.038179 1393.832153
22 193.241119 1380.371704 -0.002861 0.000000 89.965736 -31.038179 1393.832153
23 193.241119 1380.371704 -0.002861 0.000000 89.965736 -31.038179 1393.832153
[bottomMouth]
21 -435.092926 615.759399 -0.000954 -0.000022 0.000016 73.527184 753.966492
22 -435.092926 615.759399 -0.000954 -0.000022 0.000016 73.527184 753.966492
23 -435.092926 615.759399 -0.000954 -0.000022 0.000016 73.527184 753.966492
[L_Mouth01]
21 554.440979 7.658243 838.222046 150.204178 23.759130 109.605339 1005.027161
22 554.440979 7.658243 838.222046 150.204178 23.759130 109.605339 1005.027161
23 554.440979 7.658243 838.222046 150.204178 23.759130 109.605339 1005.027161
[L_mouthFront]
21 551.629089 934.514771 339.150421 0.000081 2.804060 79.119301 1136.941284
22 551.629089 934.514771 339.150421 0.000081 2.804060 79.119301 1136.941284
23 551.629089 934.514771 339.150421 0.000081 2.804060 79.119301 1136.941284
[mouthGun]
21 55.332661 1627.420898 0.000000 0.000023 0.000009 -11.038128 1628.361328
22 55.332661 1627.420898 0.000000 0.000023 0.000009 -11.038128 1628.361328
23 55.332661 1627.420898 0.000000 0.000023 0.000009 -11.038128 1628.361328
[R_Mouth01]
21 554.442383 7.659197 -838.223938 29.795891 -23.759109 109.605331 1005.029541
22 554.442383 7.659197 -838.223938 29.795891 -23.759109 109.605331 1005.029541
23 554.442383 7.659197 -838.223938 29.795891 -23.759109 109.605331 1005.029541
[R_mouthFront]
21 551.629089 934.514282 -339.151367 0.000029 -2.803930 79.119133 1136.941162
22 551.629089 934.514282 -339.151367 0.000029 -2.803930 79.119133 1136.941162
23 551.629089 934.514282 -339.151367 0.000029 -2.803930 79.119133 1136.941162
[TopMouth]
21 461.269867 -56.106091 -0.008583 -0.000059 -0.000268 92.025169 464.669525
22 461.269867 -56.106091 -0.008583 -0.000059 -0.000268 92.025169 464.669525
23 461.269867 -56.106091 -0.008583 -0.000059 -0.000268 92.025169 464.669525
[weapon_bone]
21 -987.239868 1448.372803 0.001431 0.000000 89.965736 -31.038221 1752.833740
22 -987.239868 1448.372803 0.001431 0.000000 89.965736 -31.038221 1752.833740
23 -987.239868 1448.372803 0.001431 0.000000 89.965736 -31.038221 1752.833740
